<mxfile host="app.diagrams.net" agent="Mozilla/5.0 (Windows NT 10.0; Win64; x64) AppleWebKit/537.36 (KHTML, like Gecko) Chrome/131.0.0.0 Safari/537.36" version="26.0.4">
  <diagram id="f106602c-feb2-e66a-4537-3a34d633f6aa" name="Page-1">
    <mxGraphModel dx="1674" dy="738" grid="1" gridSize="10" guides="1" tooltips="1" connect="1" arrows="1" fold="1" page="1" pageScale="1" pageWidth="1169" pageHeight="827" background="none" math="0" shadow="0">
      <root>
        <mxCell id="0" />
        <mxCell id="1" parent="0" />
        <mxCell id="Lif8JBEafslfNm7ranTe-1" value="&lt;b&gt;Google &lt;/b&gt;Cloud Platform" style="fillColor=#F6F6F6;strokeColor=none;shadow=0;gradientColor=none;fontSize=14;align=left;spacing=10;fontColor=#717171;9E9E9E;verticalAlign=top;spacingTop=-4;fontStyle=0;spacingLeft=40;html=1;rounded=0;" parent="1" vertex="1">
          <mxGeometry x="400" y="160" width="360" height="400" as="geometry" />
        </mxCell>
        <mxCell id="Lif8JBEafslfNm7ranTe-2" value="" style="shape=mxgraph.gcp2.google_cloud_platform;fillColor=#F6F6F6;strokeColor=none;shadow=0;gradientColor=none;rounded=0;" parent="Lif8JBEafslfNm7ranTe-1" vertex="1">
          <mxGeometry width="23" height="20" relative="1" as="geometry">
            <mxPoint x="20" y="10" as="offset" />
          </mxGeometry>
        </mxCell>
        <mxCell id="PbuRYt7sFYghzyY9T2_R-32" style="edgeStyle=none;shape=connector;rounded=0;orthogonalLoop=1;jettySize=auto;html=1;exitX=0.5;exitY=1;exitDx=0;exitDy=0;entryX=0.5;entryY=0;entryDx=0;entryDy=0;strokeColor=#66B2FF;align=center;verticalAlign=middle;fontFamily=Helvetica;fontSize=11;fontColor=default;labelBackgroundColor=default;startArrow=none;startFill=0;endArrow=classic;" parent="Lif8JBEafslfNm7ranTe-1" source="PbuRYt7sFYghzyY9T2_R-6" target="PbuRYt7sFYghzyY9T2_R-8" edge="1">
          <mxGeometry relative="1" as="geometry" />
        </mxCell>
        <mxCell id="PbuRYt7sFYghzyY9T2_R-6" value="" style="strokeColor=#dddddd;shadow=1;strokeWidth=1;rounded=0;absoluteArcSize=1;arcSize=2;" parent="Lif8JBEafslfNm7ranTe-1" vertex="1">
          <mxGeometry x="89.99999999999999" y="55.58912386706949" width="179.99999999999997" height="72.50755287009063" as="geometry" />
        </mxCell>
        <mxCell id="PbuRYt7sFYghzyY9T2_R-7" value="usa-customer-&lt;div&gt;shopping-trends&lt;/div&gt;" style="editableCssRules=.*;html=1;fontColor=#999999;shape=image;verticalLabelPosition=middle;verticalAlign=middle;labelPosition=right;align=left;spacingLeft=20;part=1;points=[];imageAspect=0;image=data:image/svg+xml,PHN2ZyB4bWxucz0iaHR0cDovL3d3dy53My5vcmcvMjAwMC9zdmciIHhtbG5zOnY9Imh0dHBzOi8vdmVjdGEuaW8vbmFubyIgd2lkdGg9IjIwIiBoZWlnaHQ9IjE2IiB2aWV3Qm94PSIwIDAgMjAgMTYiPiYjeGE7CTxzdHlsZSB0eXBlPSJ0ZXh0L2NzcyI+JiN4YTsJLnN0MHtmaWxsOiM0Mjg1ZjQ7fSYjeGE7CS5zdDF7ZmlsbDojNjY5ZGY2O30mI3hhOwkuc3Qye2ZpbGw6I2FlY2JmYTt9JiN4YTsJLnN0M3tmaWxsOiNmZmY7fSYjeGE7CTwvc3R5bGU+JiN4YTsJPHBhdGggY2xhc3M9InN0MiIgZD0iTTAgMGgyMHY3SDB6Ii8+JiN4YTsJPHBhdGggY2xhc3M9InN0MSIgZD0iTTE4IDBoMnY3aC0yeiIvPiYjeGE7CTxwYXRoIGNsYXNzPSJzdDAiIGQ9Ik0xOCA3bDItN2gtMnoiLz4mI3hhOwk8cGF0aCBjbGFzcz0ic3QxIiBkPSJNMCAwaDJ2N0gweiIvPiYjeGE7CTxnIGNsYXNzPSJzdDMiPiYjeGE7CQk8cGF0aCBkPSJNNCAzaDZ2MUg0eiIvPiYjeGE7CQk8cmVjdCB4PSIxMyIgeT0iMiIgd2lkdGg9IjMiIGhlaWdodD0iMyIgcng9IjEuNSIvPiYjeGE7CTwvZz4mI3hhOwk8cGF0aCBjbGFzcz0ic3QyIiBkPSJNMCA5aDIwdjdIMHoiLz4mI3hhOwk8cGF0aCBjbGFzcz0ic3QxIiBkPSJNMTggOWgydjdoLTJ6Ii8+JiN4YTsJPHBhdGggY2xhc3M9InN0MCIgZD0iTTE4IDE2bDItN2gtMnoiLz4mI3hhOwk8cGF0aCBjbGFzcz0ic3QxIiBkPSJNMCA5aDJ2N0gweiIvPiYjeGE7CTxnIGNsYXNzPSJzdDMiPiYjeGE7CQk8cGF0aCBkPSJNNCAxMmg2djFINHoiLz4mI3hhOwkJPHJlY3QgeD0iMTMiIHk9IjExIiB3aWR0aD0iMyIgaGVpZ2h0PSIzIiByeD0iMS41Ii8+JiN4YTsJPC9nPiYjeGE7PC9zdmc+;rounded=0;" parent="PbuRYt7sFYghzyY9T2_R-6" vertex="1">
          <mxGeometry width="30" height="24" relative="1" as="geometry">
            <mxPoint x="15" y="18" as="offset" />
          </mxGeometry>
        </mxCell>
        <mxCell id="PbuRYt7sFYghzyY9T2_R-33" style="edgeStyle=none;shape=connector;rounded=0;orthogonalLoop=1;jettySize=auto;html=1;exitX=0.5;exitY=1;exitDx=0;exitDy=0;entryX=0.5;entryY=0;entryDx=0;entryDy=0;strokeColor=#66B2FF;align=center;verticalAlign=middle;fontFamily=Helvetica;fontSize=11;fontColor=default;labelBackgroundColor=default;startArrow=none;startFill=0;endArrow=classic;" parent="Lif8JBEafslfNm7ranTe-1" source="PbuRYt7sFYghzyY9T2_R-8" target="PbuRYt7sFYghzyY9T2_R-13" edge="1">
          <mxGeometry relative="1" as="geometry" />
        </mxCell>
        <mxCell id="PbuRYt7sFYghzyY9T2_R-8" value="" style="strokeColor=#dddddd;shadow=1;strokeWidth=1;rounded=0;absoluteArcSize=1;arcSize=2;" parent="Lif8JBEafslfNm7ranTe-1" vertex="1">
          <mxGeometry x="89.99999999999999" y="163.7462235649547" width="179.99999999999997" height="72.50755287009063" as="geometry" />
        </mxCell>
        <mxCell id="PbuRYt7sFYghzyY9T2_R-9" value="BigQuery" style="editableCssRules=.*;html=1;fontColor=#999999;shape=image;verticalLabelPosition=middle;verticalAlign=middle;labelPosition=right;align=left;spacingLeft=20;part=1;points=[];imageAspect=0;image=data:image/svg+xml,PHN2ZyB4bWxucz0iaHR0cDovL3d3dy53My5vcmcvMjAwMC9zdmciIHhtbG5zOnY9Imh0dHBzOi8vdmVjdGEuaW8vbmFubyIgd2lkdGg9IjIwLjAwMTA0NTIyNzA1MDc4IiBoZWlnaHQ9IjIwLjAwMTA0NTIyNzA1MDc4IiBmaWxsLXJ1bGU9ImV2ZW5vZGQiIHZpZXdCb3g9IjAgMCAyMC4wMDEwNDUyMjcwNTA3OCAyMC4wMDEwNDUyMjcwNTA3OCI+JiN4YTsJPHN0eWxlIHR5cGU9InRleHQvY3NzIj4mI3hhOwkuc3Qwe2ZpbGw6I2FlY2JmYTt9JiN4YTsJLnN0MXtmaWxsOiM2NjlkZjY7fSYjeGE7CS5zdDJ7ZmlsbDojNDI4NWY0O30mI3hhOwk8L3N0eWxlPiYjeGE7CTxwYXRoIGNsYXNzPSJzdDAiIGQ9Ik00LjczIDguODN2Mi42M2E0LjkxIDQuOTEgMCAwIDAgMS43MSAxLjc0VjguODN6Ii8+JiN4YTsJPHBhdGggY2xhc3M9InN0MSIgZD0iTTcuODkgNi40MXY3LjUzQTcuNjIgNy42MiAwIDAgMCA5IDE0YTggOCAwIDAgMCAxIDBWNi40MXoiLz4mI3hhOwk8cGF0aCBjbGFzcz0ic3QwIiBkPSJNMTEuNjQgOS44NnYzLjI5YTUgNSAwIDAgMCAxLjctMS44MlY5Ljg2eiIvPiYjeGE7CTxwYXRoIGNsYXNzPSJzdDIiIGQ9Ik0xNS43NCAxNC4zMmwtMS40MiAxLjQyYS40Mi40MiAwIDAgMCAwIC42bDMuNTQgMy41NGEuNDIuNDIgMCAwIDAgLjU5IDBsMS40My0xLjQzYS40Mi40MiAwIDAgMCAwLS41OWwtMy41NC0zLjU0YS40Mi40MiAwIDAgMC0uNiAwIi8+JiN4YTsJPHBhdGggY2xhc3M9InN0MSIgZD0iTTkgMGE5IDkgMCAxIDAgMCAxOEE5IDkgMCAxIDAgOSAwbTAgMTUuNjlhNi42OCA2LjY4IDAgMCAxIC4wMDctMTMuMzYgNi42OCA2LjY4IDAgMCAxIDQuNzI3IDExLjQwM0E2LjY4IDYuNjggMCAwIDEgOSAxNS42OSIvPiYjeGE7PC9zdmc+;rounded=0;" parent="PbuRYt7sFYghzyY9T2_R-8" vertex="1">
          <mxGeometry width="30" height="30" relative="1" as="geometry">
            <mxPoint x="15" y="15" as="offset" />
          </mxGeometry>
        </mxCell>
        <mxCell id="PbuRYt7sFYghzyY9T2_R-13" value="" style="strokeColor=#dddddd;shadow=1;strokeWidth=1;rounded=0;absoluteArcSize=1;arcSize=2;" parent="Lif8JBEafslfNm7ranTe-1" vertex="1">
          <mxGeometry x="89.99999999999999" y="274.9244712990937" width="179.99999999999997" height="72.50755287009063" as="geometry" />
        </mxCell>
        <mxCell id="PbuRYt7sFYghzyY9T2_R-10" value="Looker" style="html=1;verticalAlign=top;labelPosition=center;verticalLabelPosition=bottom;align=center;spacingTop=-6;fontSize=11;fontStyle=1;fontColor=#999999;shape=image;aspect=fixed;imageAspect=0;image=data:image/svg+xml,PHN2ZyB4bWxucz0iaHR0cDovL3d3dy53My5vcmcvMjAwMC9zdmciIGlkPSJzdmc4OTgwMSIgdmVyc2lvbj0iMS4xIiB2aWV3Qm94PSIwIDAgMjA4LjA1NjU1IDMzNC42MTMxNiIgaGVpZ2h0PSIzMzQuNjEzMTZtbSIgd2lkdGg9IjIwOC4wNTY1NW1tIj4mI3hhOyAgJiN4YTsgIDxkZWZzIGlkPSJkZWZzODk3OTgiLz4mI3hhOyAgPGcgdHJhbnNmb3JtPSJ0cmFuc2xhdGUoLTQuMjQ2MjUyNCwxNS42NzE5MTEpIiBpZD0ibGF5ZXIxIj4mI3hhOyAgICA8cGF0aCBpZD0icGF0aDkxODAyIiB0cmFuc2Zvcm09InNjYWxlKDAuMjY0NTgzMzMpIiBkPSJtIDQwOS4yMjI2Niw0MTkuMDk5NjEgYyAtMzYuNjA4MTEsMCAtNzIuMDc2NjcsNS4wNzUzIC0xMDUuNzUzOTEsMTQuNTMxMjUgbCA0OS4wMzUxNiwxMjAuMDQxMDIgYyAxOC4yNjE3MiwtMy45Mzg5OSAzNy4yMjE5NiwtNi4wNjgzNiA1Ni43MTg3NSwtNi4wNjgzNiAxNDYuOTM1MTQsMCAyNjQuNjc3NzMsMTE3LjczNDc3IDI2NC42Nzc3MywyNjQuNjY5OTIgMCwxNDYuOTM1MTQgLTExNy43NDI1OSwyNjQuNjY5OTYgLTI2NC42Nzc3MywyNjQuNjY5OTYgLTE0Ni45MzUxNiwwIC0yNjQuNjY5OTEsLTExNy43MzQ4MiAtMjY0LjY2OTkzLC0yNjQuNjY5OTYgMCwtOTkuMTg3NjMgNTMuNjg5ODMsLTE4NS4wMDU5NiAxMzMuNzU1ODYsLTIzMC4zNDc2NiBMIDIyOS42MjY5NSw0NjIuNzUgQyAxMDMuMDI0Nyw1MjguMjI0NzQgMTYuMDQ4ODI3LDY2MC41MDUyMyAxNi4wNDg4MjgsODEyLjI3MzQ0IGMgMi4zZS01LDIxNi4zODM3NiAxNzYuNzkwMDYyLDM5My4xNzM4NiAzOTMuMTczODMyLDM5My4xNzM4NiAyMTYuMzgzNzMsMCAzOTMuMTgxNjQsLTE3Ni43OTAxIDM5My4xODE2NCwtMzkzLjE3Mzg2IDNlLTUsLTIxNi4zODM3OCAtMTc2Ljc5Nzg3LC0zOTMuMTczODMgLTM5My4xODE2NCwtMzkzLjE3MzgzIHoiIHN0eWxlPSJjb2xvcjojMDAwMDAwO29wYWNpdHk6MTtmaWxsOiM1OTg2ZjI7ZmlsbC1vcGFjaXR5OjE7c3Ryb2tlLXdpZHRoOjMuNzc5NTM7c3Ryb2tlLWxpbmVqb2luOnJvdW5kOy1pbmtzY2FwZS1zdHJva2U6bm9uZSIvPiYjeGE7ICAgIDxwYXRoIGQ9Im0gMTg5Ljk0MzM2LDg2LjI1IGMgLTk1LjEzMDMzMSwwIC0xNzMuMTc5Njg4LDc4LjA1NTIyIC0xNzMuMTc5Njg4LDE3My4xODU1NSAtNmUtNiw5NS4xMzAzMyA3OC4wNDkzNTMsMTczLjE3OTY4IDE3My4xNzk2ODgsMTczLjE3OTY4IDkuMDE2MTgsMCAxNy44NzU4LC0wLjcwODMyIDI2LjUzMzIsLTIuMDU4NTkgbCAtMzQuODI4MTIsLTg1LjI2NTYyIGMgLTQ0LjE1NzMsLTQuMDg2NjkgLTc3Ljk1NTA4LC00MC41MDcwNSAtNzcuOTU1MDgsLTg1Ljg1NTQ3IDAsLTQ4LjE1MDM5IDM4LjA5OTYyLC04Ni4yNTU4NiA4Ni4yNSwtODYuMjU1ODYgMTMuMTU5NzcsMCAyNS41NTg4OCwyLjg2MjQ2IDM2LjY0NDUzLDcuOTgyNDIgbCA2NC41NTQ2OSwtNjEuOTE5OTIgQyAyNjIuNjA4MzcsOTguNTMzOTEgMjI3LjYyOTI5LDg2LjI1IDE4OS45NDMzNiw4Ni4yNSBaIG0gMTM4Ljg4ODY3LDcwLjE2MjExIC02My40Mjc3Myw2MC44MzU5NCBjIDYuODc2MzgsMTIuNDI2NzggMTAuNzg5MDYsMjYuNzg4MTUgMTAuNzg5MDYsNDIuMTg3NSAwLDIxLjc2NzEyIC03LjgwNDE1LDQxLjQ2NTQgLTIwLjc4NTE2LDU2LjUzMzIgbCAzNC41MjM0NCw4NC41MTk1MyBjIDQ0LjE3Mzg3LC0zMS40ODc1MSA3My4xOTE0MSwtODMuMDc4OTIgNzMuMTkxNDEsLTE0MS4wNTI3MyAwLC0zOC40ODM1NSAtMTIuNzgyLC03NC4xNjUzMiAtMzQuMjkxMDIsLTEwMy4wMjM0NCB6IiB0cmFuc2Zvcm09InNjYWxlKDAuMjY0NTgzMzMpIiBzdHlsZT0iY29sb3I6IzAwMDAwMDtvcGFjaXR5OjE7ZmlsbDojNmY5OGY0O2ZpbGwtb3BhY2l0eToxO3N0cm9rZS13aWR0aDozLjc3OTUzO3N0cm9rZS1saW5lam9pbjpyb3VuZDstaW5rc2NhcGUtc3Ryb2tlOm5vbmUiIGlkPSJwYXRoOTE3OTgiLz4mI3hhOyAgICA8cGF0aCBpZD0icGF0aDg5OTI4IiB0cmFuc2Zvcm09InNjYWxlKDAuMjY0NTgzMzMpIiBkPSJtIDQwNi4xMzY3MiwtNTkuMjMyNDIyIGMgLTU4LjgxNTQ3LDhlLTYgLTEwNy4xMDM1Miw0OC4yODgwNDUgLTEwNy4xMDM1MiwxMDcuMTAzNTE2IDAsMTguNDk0NDUxIDQuNzgxMDEsMzUuOTQ1MDE3IDEzLjE1NjI1LDUxLjE4MzU5NCBsIDQ0LjMxMjUsLTQyLjUwMzkwNyBjIC0wLjQ3NTY3LC0yLjgyMDc3NSAtMC43NzUzOSwtNS43MDc1NjQgLTAuNzc1MzksLTguNjc5Njg3IDAsLTI4LjE3NjM4IDIyLjIzMzc4LC01MC40MTAxNTI1IDUwLjQxMDE2LC01MC40MTAxNTY1IDI4LjE3NjM4LC00ZS02IDUwLjQxMDE1LDIyLjIzMzc3MDUgNTAuNDEwMTYsNTAuNDEwMTU2NSAwLDI4LjE3NjM4MSAtMjIuMjMzNzgsNTAuNDEyMTEzIC01MC40MTAxNiw1MC40MTIxMDkgLTUuMDY4NjksLTEwZS03IC05LjkzNDE3LC0wLjc0NTYzMSAtMTQuNTIzNDQsLTIuMDg5ODQ0IGwgLTQzLjM2MTMzLDQxLjU5MTgwMSBjIDE2LjczMjIzLDEwLjg0Nzk1IDM2LjYxMTIzLDE3LjE4OTQ1IDU3Ljg4NDc3LDE3LjE4OTQ1IDU4LjgxNTQ5LDEwZS02IDEwNy4xMDM1MSwtNDguMjg4MDQgMTA3LjEwMzUxLC0xMDcuMTAzNTE2IDAsLTU4LjgxNTQ4MyAtNDguMjg4MDIsLTEwNy4xMDM1MjMgLTEwNy4xMDM1MSwtMTA3LjEwMzUxNiB6IiBzdHlsZT0iY29sb3I6IzAwMDAwMDtvcGFjaXR5OjE7ZmlsbDojZDZlM2ZiO2ZpbGwtb3BhY2l0eToxO3N0cm9rZS13aWR0aDozLjc3OTUzO3N0cm9rZS1saW5lam9pbjpyb3VuZDstaW5rc2NhcGUtc3Ryb2tlOm5vbmUiLz4mI3hhOyAgPC9nPiYjeGE7PC9zdmc+;rounded=0;" parent="Lif8JBEafslfNm7ranTe-1" vertex="1">
          <mxGeometry x="116.47058823529409" y="283.98791540785504" width="16.906770833333333" height="27.30902777777778" as="geometry" />
        </mxCell>
        <mxCell id="Lif8JBEafslfNm7ranTe-3" value="Development&lt;div&gt;Environment.&lt;/div&gt;" style="rounded=0;absoluteArcSize=1;arcSize=2;html=1;strokeColor=none;gradientColor=none;shadow=0;dashed=0;fontSize=12;fontColor=#9E9E9E;align=center;verticalAlign=top;spacing=10;spacingTop=-4;fillColor=#F1F8E9;" parent="1" vertex="1">
          <mxGeometry x="120" y="160" width="240" height="400" as="geometry" />
        </mxCell>
        <mxCell id="Lif8JBEafslfNm7ranTe-4" value="Architecture:&amp;nbsp;Customer Purchase Pattern Analysis" style="fillColor=#4DA1F5;strokeColor=none;shadow=1;gradientColor=none;fontSize=14;align=left;spacingLeft=50;fontColor=#ffffff;html=1;rounded=0;" parent="1" vertex="1">
          <mxGeometry x="120" y="120" width="800" height="40" as="geometry" />
        </mxCell>
        <mxCell id="PbuRYt7sFYghzyY9T2_R-29" style="edgeStyle=none;shape=connector;rounded=0;orthogonalLoop=1;jettySize=auto;html=1;exitX=1;exitY=0.5;exitDx=0;exitDy=0;entryX=0;entryY=0.5;entryDx=0;entryDy=0;strokeColor=#66B2FF;align=center;verticalAlign=middle;fontFamily=Helvetica;fontSize=11;fontColor=default;labelBackgroundColor=default;startArrow=classic;startFill=1;endArrow=classic;" parent="1" source="Lif8JBEafslfNm7ranTe-6" target="PbuRYt7sFYghzyY9T2_R-6" edge="1">
          <mxGeometry relative="1" as="geometry" />
        </mxCell>
        <mxCell id="Lif8JBEafslfNm7ranTe-6" value="" style="strokeColor=#dddddd;fillColor=#ffffff;shadow=1;strokeWidth=1;rounded=0;absoluteArcSize=1;arcSize=2;labelPosition=center;verticalLabelPosition=middle;align=center;verticalAlign=bottom;spacingLeft=0;fontColor=#999999;fontSize=12;whiteSpace=wrap;spacingBottom=2;html=1;" parent="1" vertex="1">
          <mxGeometry x="265" y="219" width="70" height="70" as="geometry" />
        </mxCell>
        <mxCell id="PbuRYt7sFYghzyY9T2_R-27" style="edgeStyle=orthogonalEdgeStyle;rounded=0;orthogonalLoop=1;jettySize=auto;html=1;exitX=0.5;exitY=0;exitDx=0;exitDy=0;entryX=0;entryY=0.5;entryDx=0;entryDy=0;strokeColor=#66B2FF;startArrow=classic;startFill=1;" parent="1" source="Lif8JBEafslfNm7ranTe-9" target="Lif8JBEafslfNm7ranTe-6" edge="1">
          <mxGeometry relative="1" as="geometry">
            <mxPoint x="185" y="300.75" as="targetPoint" />
          </mxGeometry>
        </mxCell>
        <mxCell id="PbuRYt7sFYghzyY9T2_R-28" style="edgeStyle=orthogonalEdgeStyle;shape=connector;rounded=0;orthogonalLoop=1;jettySize=auto;html=1;exitX=0.5;exitY=1;exitDx=0;exitDy=0;entryX=0;entryY=0.5;entryDx=0;entryDy=0;strokeColor=#66B2FF;align=center;verticalAlign=middle;fontFamily=Helvetica;fontSize=11;fontColor=default;labelBackgroundColor=default;startArrow=classic;startFill=1;endArrow=classic;" parent="1" source="Lif8JBEafslfNm7ranTe-9" target="PbuRYt7sFYghzyY9T2_R-2" edge="1">
          <mxGeometry relative="1" as="geometry">
            <mxPoint x="215" y="413" as="targetPoint" />
          </mxGeometry>
        </mxCell>
        <mxCell id="Lif8JBEafslfNm7ranTe-9" value="" style="strokeColor=#dddddd;fillColor=#ffffff;shadow=1;strokeWidth=1;rounded=0;absoluteArcSize=1;arcSize=2;labelPosition=center;verticalLabelPosition=middle;align=center;verticalAlign=bottom;spacingLeft=0;fontColor=#999999;fontSize=12;whiteSpace=wrap;spacingBottom=2;html=1;" parent="1" vertex="1">
          <mxGeometry x="150" y="325.75" width="70" height="70" as="geometry" />
        </mxCell>
        <mxCell id="Lif8JBEafslfNm7ranTe-10" value="" style="dashed=0;connectable=0;html=1;fillColor=#757575;strokeColor=none;shape=mxgraph.gcp2.laptop;part=1;rounded=0;" parent="Lif8JBEafslfNm7ranTe-9" vertex="1">
          <mxGeometry x="0.5" width="50" height="33" relative="1" as="geometry">
            <mxPoint x="-25" y="18.5" as="offset" />
          </mxGeometry>
        </mxCell>
        <mxCell id="PbuRYt7sFYghzyY9T2_R-2" value="" style="strokeColor=#dddddd;fillColor=#ffffff;shadow=1;strokeWidth=1;rounded=0;absoluteArcSize=1;arcSize=2;labelPosition=center;verticalLabelPosition=middle;align=center;verticalAlign=bottom;spacingLeft=0;fontColor=#999999;fontSize=12;whiteSpace=wrap;spacingBottom=2;html=1;" parent="1" vertex="1">
          <mxGeometry x="265" y="440" width="70" height="70" as="geometry" />
        </mxCell>
        <mxCell id="PbuRYt7sFYghzyY9T2_R-3" value="" style="dashed=0;outlineConnect=0;html=1;align=center;labelPosition=center;verticalLabelPosition=bottom;verticalAlign=top;shape=mxgraph.webicons.github;gradientColor=#DFDEDE;rounded=0;" parent="1" vertex="1">
          <mxGeometry x="275" y="446.75" width="50" height="56.5" as="geometry" />
        </mxCell>
        <mxCell id="PbuRYt7sFYghzyY9T2_R-15" value="Consumers" style="rounded=0;absoluteArcSize=1;arcSize=2;html=1;strokeColor=none;gradientColor=none;shadow=0;dashed=0;fontSize=12;fontColor=#9E9E9E;align=left;verticalAlign=top;spacing=10;spacingTop=-4;fillColor=#F1F8E9;" parent="1" vertex="1">
          <mxGeometry x="800" y="160" width="120" height="400" as="geometry" />
        </mxCell>
        <mxCell id="PbuRYt7sFYghzyY9T2_R-17" value="" style="strokeColor=#dddddd;fillColor=#ffffff;shadow=1;strokeWidth=1;rounded=0;absoluteArcSize=1;arcSize=2;labelPosition=center;verticalLabelPosition=middle;align=center;verticalAlign=bottom;spacingLeft=0;fontColor=#999999;fontSize=12;whiteSpace=wrap;spacingBottom=2;html=1;" parent="1" vertex="1">
          <mxGeometry x="824.06" y="254" width="60" height="60" as="geometry" />
        </mxCell>
        <mxCell id="PbuRYt7sFYghzyY9T2_R-19" value="" style="image;aspect=fixed;html=1;points=[];align=center;fontSize=12;image=img/lib/azure2/power_platform/PowerBI.svg;rounded=0;" parent="1" vertex="1">
          <mxGeometry x="841.8700000000001" y="268.25" width="24.38" height="32.5" as="geometry" />
        </mxCell>
        <mxCell id="PbuRYt7sFYghzyY9T2_R-26" value="" style="shape=image;imageAspect=0;aspect=fixed;verticalLabelPosition=bottom;verticalAlign=top;image=data:image/png,iVBORw0KGgoAAAANSUhEUgAAADYAAAA4CAYAAAC2TwutAAAAAXNSR0IArs4c6QAAAARnQU1BAACxjwv8YQUAAAAJcEhZcwAADsMAAA7DAcdvqGQAAAW7SURBVGhD7ZhtTFtVGIDf9pYWaUqZAkOHUnSKTBnBZY4/48OvEE00cfvjdDjQhCwZ7ocfiTECI2qMZj+mM0tM3OZmTDQTdRH9YQYdMWaaLITpGDINJYJjA8KgttDSD+9777nrbXs/zj29ECE8yc15z2mb9jnvOe+9p5Y4D6xCrKRddayJrTTWxFYaqlUx2H0Kgj90CTF3a7HQIlzRBqG18a00buNb+XuWG+9cAHyhRdhTkEdGNMSiV8Zgct8uoaXF8UA12Ku2gYO/lksWpeoHfdBeXAAdxYVkVEMMYZGTI4k6H9+xJJKSFGJITGJiRw2znETOEzsht/kl0wTlUkiqGFXxKPqqL+MfhHsWJwjbTEmVQjwOO4lEqKuiGXLIzNuvwdwnhyD6xwUyYgwlKSUMlXuz5Py8WOCnXsNyWPlopBDD9zEz5cLdX1LLoVRp/zDppeNxZJFIhOkGjXJYDDIlPnAOIt+c0JXTk0KY91gq6954L2O50NwcOKbHIPbxO6pyNFJKMIshZsghWRwoyhmRMmUpylkqOZRq+mtciPVIlUIyFkNY5WwOB4lEJLnx3/sFKSztNNTlOkmUwBQx5NKL70JLy2l4uLUPDtfuJ6PGQbnL331BLaWGKWI/X43BznNxOFt4P4znFcPhmv2CIMZa2N0uEiXjc7lJREftUmRMkvLb+amWgVKNuz/XlHO4c0mUzIHyGhLRYfpSVJOSkOSU4LKT95cESvlyEucqGkwvHlpSEoJcY7qcszCfRAm8BSXQUV5LenTID5dymMVu+zaqKyXxa0m1cMlx3SGexCUwU/XbG0mPnudVxJj+MC3tWoQrU1GIzi1CbCFGRvlZyrYCl5sF1lwbcG4bGRXZcH0Mznwo7h3cW/kV9wox0rTlSTheUkl69OASHKm6h/SSMZyxrZ8FYbT/Xwj/PQ/R2QjEQ7EbF/ZxfOGiH4LnZyH0ZwAi18LC53BJfl0p3uvW3V0qtChT2tDKJIW0yw6WqRjK2ENH/eAdiZAePRaHFbIKHbAZhuCFU3uhvmYrtFQ2CHuKFa1sIdQZO9AzzySFYDYxkxPDQ3Cay4NHix7MSAo5dlfyHk2FKmO+6zG48+As6bFhrT4JbtcvYB2KAPfYB7AQ52De74dwMEjeQU/vJo/ivUsOlVhzVwCO94t7xSjWim6wVHwvxLGpeYhNBsGeXwtOz15xLBqFSCgEIV4wEtb+DivHwZmy23WlECox65szJDKAc1rIkmX9ZTIAELk0TSK+3Je1gc21ifREUBJBUYyj/MXxMog9Jwfecjtg383Kj2Gp6O4xpkzxUtwjh5Kk4sFFEonM/5P+bxVmBC+UyHa5wJmXJ7R4PXuTjVoK0RXr7J0nER0owz3VJsjJiQeTC0/EPwgLCnJKPGO3wEdFxh6zdMV8M4kbMA24/JTAvZUKZk1PjkUK0RQzugyxUKRmCokvqk9OaPqskD0lWKUQTbG+keR9oUuR8g+Mz4ZIlE4sNAkB35G0zG2zRJmlEN2laIQyu8rmDovVTg2Uw2U5+1srLEx0g3NuEI7cov0ZPTTFvD76J409VXa4WP06bIeNZCSB1lKUIwiOnYSx4U5oOn8QfMGr5BXjaIrRFg6UOvq0eNPsKe9UlDOKd3IA6vteZZZTFcPHKBrkUhJmyaEUq5y6GEW2lKQk5HKWLPatzCrHnLG6UpuqlMQNOWf6fxJGYJFjmkqU6mmme7xBuVr3fRllDTEqp/ptozPK5daIlATKtW3cRXrsGJEzNI0sUhId5buhvfw58OSsJyNs0MpRi2UiJYFyx7a8sixy6ktRVjzMkJKoK9gMIw0neMGXMxLUk1M9aEqnZjOllPBOXgDv1AB8Ovqj7vJSAient+b9tEnSFMOSv5RSSkiio8FrgqgvMEEljKtALqcqhlKevMxKtJlIcr5AQtIXnCARLvFKOrGVzv8nJSazJrbSWKViAP8BxBLJQjJyxoEAAAAASUVORK5CYII=;rounded=0;" parent="1" vertex="1">
          <mxGeometry x="280.71000000000004" y="234" width="38.57" height="40" as="geometry" />
        </mxCell>
        <mxCell id="PbuRYt7sFYghzyY9T2_R-31" style="edgeStyle=elbowEdgeStyle;shape=connector;rounded=0;orthogonalLoop=1;jettySize=auto;html=1;exitX=0;exitY=0.5;exitDx=0;exitDy=0;entryX=1;entryY=0.5;entryDx=0;entryDy=0;strokeColor=#66B2FF;align=center;verticalAlign=middle;fontFamily=Helvetica;fontSize=11;fontColor=default;labelBackgroundColor=default;startArrow=classic;startFill=1;endArrow=classic;" parent="1" source="PbuRYt7sFYghzyY9T2_R-8" target="Lif8JBEafslfNm7ranTe-6" edge="1">
          <mxGeometry relative="1" as="geometry" />
        </mxCell>
        <mxCell id="PbuRYt7sFYghzyY9T2_R-34" style="edgeStyle=none;shape=connector;rounded=0;orthogonalLoop=1;jettySize=auto;html=1;exitX=1;exitY=0.5;exitDx=0;exitDy=0;strokeColor=#66B2FF;align=center;verticalAlign=middle;fontFamily=Helvetica;fontSize=11;fontColor=default;labelBackgroundColor=default;startArrow=none;startFill=0;endArrow=classic;" parent="1" source="PbuRYt7sFYghzyY9T2_R-8" target="PbuRYt7sFYghzyY9T2_R-15" edge="1">
          <mxGeometry relative="1" as="geometry" />
        </mxCell>
        <mxCell id="Kz8ndP79w8G84irrwCDF-1" value="" style="strokeColor=#dddddd;fillColor=#ffffff;shadow=1;strokeWidth=1;rounded=0;absoluteArcSize=1;arcSize=2;labelPosition=center;verticalLabelPosition=middle;align=center;verticalAlign=bottom;spacingLeft=0;fontColor=#999999;fontSize=12;whiteSpace=wrap;spacingBottom=2;html=1;" vertex="1" parent="1">
          <mxGeometry x="824.06" y="400" width="60" height="60" as="geometry" />
        </mxCell>
        <mxCell id="Kz8ndP79w8G84irrwCDF-2" value="" style="shape=image;verticalLabelPosition=bottom;labelBackgroundColor=default;verticalAlign=top;aspect=fixed;imageAspect=0;image=data:image/png,iVBORw0KGgoAAAANSUhEUgAAADEAAAApCAYAAACcGcHqAAAAAXNSR0IArs4c6QAAAARnQU1BAACxjwv8YQUAAAAJcEhZcwAADsMAAA7DAcdvqGQAAAMSSURBVGhD7ZhBaBNREIYnqYJJUxCToKWRFlSQglhJMUWUIEpPohcPtt48KEWDPVjsSW0vehNUPHnqRTCitoInhWgPpmJFRQraIkQTo6YplZpIWtt1Z3fSbDbZzcvLrqQhHzz2/ZMe9t83M2+oRRCBNY6VnmuaugkWBkfHYTb1h5Q51E+iWuDuTkL6O0A6DhbXHork0EuhO73dtMvx8cccOB02cDXaKFImaIKH5cgTYenhflLaXHz0Qkj8TpMqDv7N6PsZUuVTr4lqwXQT144d4M91RpgLe+XNVbGY46RExMJGrS5si6sDrDtPkSoEi3jsw2dSMhhDo1jcSgYOddJOH/aTsG8Gi715dYF9ixRWxuS4uErgatyQt7JoxUsilTcHrN2JharuTsuRMGRGeuDvu/sUMQdTTQjzUckIPs2kqltsYi5NO32YTahHCexKDd1BUpVx4XAnHN21jZRMYOgZTE0nSenDfRIWsTvhMoJK7xHD0glzHwtYuVYiE9Jvwq9YwW+41GD6KJc6poXuZac3japvYuxCaIQVy0YP2ALjpGROnH9Mu0L6ejvA79tKKh/mGxsNYe5qHT1+WXUXwpNAYw2tXWBt9VFUBk2s232clIzyaw/ffAn+vZ7VF3dvskvPoqAJFlhGajVLb4NCarhNWAxdpwg75648FULhL6T04a6Jxeg3WAhPkqqMV1NxiCUWSJUPswl1DaCB6Z4zkplKGbz9HB6EPpGS6TupXQNqDOtORtO+3Um70phqAosXl9mYagK7ErbR9f5+OWASzC02MjCUl/+ZaFzSTV1eisg4fF5o7j9NqhAs4lvB/IYwIcZa3E3gcTsoIjNy+Qjt9KnamigLqdFyMBscEybbvELma4wixfmZTNFOm4Nn7wo37r0mVT6mngTewNI0OsM2jfJSE+lkionc5CkPj4lk6Um0Erj/F4udCTuUujtlU0iLS4F9BRcZdqwWsTNhh+KB24QW6q+NhnCMbt8hv7juNMqJ4emEL5ldWdzOwpiR1ERhG55OSrLFXc4wx4OpJv4XNZBOAP8A5pElymVrK2MAAAAASUVORK5CYII=;" vertex="1" parent="1">
          <mxGeometry x="829.56" y="409.5" width="49" height="41" as="geometry" />
        </mxCell>
        <mxCell id="Kz8ndP79w8G84irrwCDF-6" value="" style="strokeColor=#dddddd;fillColor=#ffffff;shadow=1;strokeWidth=1;rounded=0;absoluteArcSize=1;arcSize=2;labelPosition=center;verticalLabelPosition=middle;align=center;verticalAlign=bottom;spacingLeft=0;fontColor=#999999;fontSize=12;whiteSpace=wrap;spacingBottom=2;html=1;" vertex="1" parent="1">
          <mxGeometry x="265" y="325" width="70" height="70" as="geometry" />
        </mxCell>
        <mxCell id="Kz8ndP79w8G84irrwCDF-8" value="" style="shape=image;verticalLabelPosition=bottom;labelBackgroundColor=default;verticalAlign=top;aspect=fixed;imageAspect=0;image=data:image/png,iVBORw0KGgoAAAANSUhEUgAAAH8AAABdCAYAAACM2bkuAAAAAXNSR0IArs4c6QAAAARnQU1BAACxjwv8YQUAAAAJcEhZcwAADsMAAA7DAcdvqGQAAAaOSURBVHhe7ZxLjBRFGIALvRmWgyYaxJMJqPEViQvLVYwH9gCSeNEs8RUPoMl6k4CJiZjFkxjFk++NJl4AD3AwwsELsBiIr/jYq6uRBA7gXfvr6QpNT3X3XzU9s8P+/5dMprp7unszXz3+v7pmV/2X4QyV3FS8Gwox+Yox+Yox+Yox+Yox+Yox+Yox+Yox+Yox+Yox+Yox+Yox+Yox+Yox+Yox+Yox+Yox+Yox+Yox+Yox+Yox+Yox+Yox+Yox+Yox+Yox+Yox+YqR/1Dzj5+cO/Glc5f+cW7Dg85tfrz33jXHv3DuzMleeWqrc9PP9MpG58jkI+R4Jr7MbXf05ExllYDyoFC55t/pVa4yXHt2rpt7GNfRLh8ph14rNgL4SpDaQpE9fyi7z4/FjgDc482Piw2jK9rlH9rbLMaDoJlX5UMB0s9829+j1DF7cDjDjGLaAz6JeEAmPUSo666C9Nefl4uHyy3XNKJpl7/hoaIg5HQmlt6COCEExz7PKkgs64fX6peW/nbvHf6w2OrHH+d9JdHe7dOKaaUphIYCWn2sfCogQV+HIPLIsePu3PcX3NmF8/m+3385nb97Fs6dz4+9/8FH+fb8p4fdpsmNeXkl0N7yERjb+j2hoYDsYPrpXlnKtsjPC5h5bk8u1YuvsnffATfzbO8zXUOlG4deRDbJMzNbFBKpDgVUAClbhjSfMGIQviurcPfcvyWvWOOATD6tP7a1VqHlE+AxhFy6KO9NGDZucJDNq66XWS5k8qGryRw/FPhhoIldN774cUYuv4vWX6ZNPveLGR6MaOTygXQrNfiLZcDu3kfzpGi8E7l3SRfX5xrl16iRP9jxtE33dsGAqR1CQlH6unVr3ZPbt7lX9rzoHntiZ98XXk71GKORWoZUb92da/NzQ3D9+U+yz2TvZULXqrIcaWRcywci72G3/gGyCyLquvQM2RxrmtBp4s/s/DrxwPVJIdtEjwvx8mH9A0VBAKka8/LSYJHPJwaWSJVE1FSAlG5WkqL5CpZy/VGTJl8aiCHSz/BJH8veentRiKeuq3959wt5tzr31v6+LjkFfz1elKv4CtDEzh3T+bn+xXAyatLkS1tmOWjLo/etxUb3hLrazZs2ulPfHMnHeMZTvnDGZPangnB/PV6U2VflbEsAiHDO9a8uKmUsafIlOTqUH+74SZ42Fn8uCnEc+/pEUbpGqFXyJc8d2F9sxUHlCQVl7KtWKFp/1xlG16TJX8wifgnIpgKQIUgfDkkrVgWCsSohUUAFSGlpk5OPFKV+Jh/tPxb6m8aJNPl+jZ0EKkBMaoh8Kksk1QCrTe5dHXezofuNe9AXLx8x0gUeqbBQdMiktMquK8xyEy9/BGLyysVz/whSuvFYmipMqJWP4m8ahDj5CBl2q/fELPHKqLbKpoCL/Sldciio9LAopMrmmpgDlv5a/iEhTr5ESOIETR95dlCzFCzAju3bitI16nLtthy8DiaQQhWKfaHJJd/yQ4HiODzevfmNjKLcDCJ+OFNsNPDUS1kzvFueETRx+aJzD085d8vqYkc9ayYm3GfzXxVbPWjdR7PWOjGx2l29+m+ee8+9/W7tF0++7Tl56jv362+LxdY1Fs5dcFeuXHWrVvVaL/MLoZk/0kyf/nHvo8eu7zW4Dr0FQwk9yn33rndr1kwUR0eD7MEOrVCaqvHYlzX8nNO2Hl+CnyUUUCdCStuDHSm0eCaXyoQeJJVhoqguNR0Wsm4fiVJIAxFP98+ULgsyBhkK8uxC1oswxoYmdqowWZMyyyeZHub4wexzVdjXdi6VjSHEPyYeNu3yY1M7xJczAp4DUAlSF4JUr9cAXy5dd1MFQDwSUyCobJoeZj+S62YB2yoA12eOn+EgNS6Job3bZ+UtCzBjCf3CZpChIPIXO3SxjPG+q0VMWUoocCsf57xqRF497q+PUHqdtpbt4d6M9f5cpHNtv807SK+XSrv83dNFQYhkIYb/mRaVQQrDhy3r6pT2bl+6cCMf47PWKVmBkzIUDPEXO1ppb/mM+U1z8/5R7SC/0vU9QR0DLusywshSPXL8kByf1nVBXTxA5bKfZw8FmXygByDqRg4tkXV2g6RwddALMEHE/ew/cwwVuXxjxRE3t2+sKEy+Yky+Yky+Yky+Yky+Yky+Yky+Yky+Yky+Yky+Yky+Yky+Yky+Yky+Yky+Yky+Yky+Yky+Yky+Yky+Yky+Yky+Yky+Yky+Yky+Yky+Yky+Wpz7H3zz2EvDZ2I+AAAAAElFTkSuQmCC;" vertex="1" parent="1">
          <mxGeometry x="269.27" y="340" width="60.73" height="44.47" as="geometry" />
        </mxCell>
        <mxCell id="Kz8ndP79w8G84irrwCDF-10" style="shape=connector;rounded=0;orthogonalLoop=1;jettySize=auto;html=1;strokeColor=#66B2FF;align=center;verticalAlign=middle;fontFamily=Helvetica;fontSize=11;fontColor=default;labelBackgroundColor=default;startArrow=classic;startFill=1;endArrow=classic;entryX=0.012;entryY=0.45;entryDx=0;entryDy=0;entryPerimeter=0;" edge="1" parent="1" source="Lif8JBEafslfNm7ranTe-9" target="Kz8ndP79w8G84irrwCDF-8">
          <mxGeometry relative="1" as="geometry">
            <mxPoint x="220" y="367.75" as="sourcePoint" />
            <mxPoint x="260" y="360" as="targetPoint" />
          </mxGeometry>
        </mxCell>
        <mxCell id="Kz8ndP79w8G84irrwCDF-12" style="shape=connector;rounded=0;orthogonalLoop=1;jettySize=auto;html=1;strokeColor=#66B2FF;align=center;verticalAlign=middle;fontFamily=Helvetica;fontSize=11;fontColor=default;labelBackgroundColor=default;startArrow=classic;startFill=1;endArrow=classic;" edge="1" parent="1" target="PbuRYt7sFYghzyY9T2_R-8">
          <mxGeometry relative="1" as="geometry">
            <mxPoint x="335" y="361.73" as="sourcePoint" />
            <mxPoint x="385" y="361.73" as="targetPoint" />
          </mxGeometry>
        </mxCell>
        <mxCell id="Kz8ndP79w8G84irrwCDF-13" style="shape=connector;rounded=0;orthogonalLoop=1;jettySize=auto;html=1;strokeColor=#66B2FF;align=center;verticalAlign=middle;fontFamily=Helvetica;fontSize=11;fontColor=default;labelBackgroundColor=default;startArrow=classic;startFill=1;endArrow=classic;exitX=0.5;exitY=1;exitDx=0;exitDy=0;" edge="1" parent="1" source="Lif8JBEafslfNm7ranTe-6">
          <mxGeometry relative="1" as="geometry">
            <mxPoint x="230" y="370" as="sourcePoint" />
            <mxPoint x="300" y="330" as="targetPoint" />
          </mxGeometry>
        </mxCell>
        <mxCell id="Kz8ndP79w8G84irrwCDF-14" style="shape=connector;rounded=0;orthogonalLoop=1;jettySize=auto;html=1;strokeColor=#66B2FF;align=center;verticalAlign=middle;fontFamily=Helvetica;fontSize=11;fontColor=default;labelBackgroundColor=default;startArrow=classic;startFill=1;endArrow=classic;exitX=0.5;exitY=1;exitDx=0;exitDy=0;" edge="1" parent="1">
          <mxGeometry relative="1" as="geometry">
            <mxPoint x="299.13" y="399" as="sourcePoint" />
            <mxPoint x="299.13" y="440" as="targetPoint" />
          </mxGeometry>
        </mxCell>
      </root>
    </mxGraphModel>
  </diagram>
</mxfile>
